<?xml version="1.0" encoding="UTF-8"?>
<svg xmlns="http://www.w3.org/2000/svg" xmlns:xlink="http://www.w3.org/1999/xlink" viewBox="0 0 210.3 210.3">
  <defs>
    <style>
      .cls-1 {
        fill: url(#linear-gradient);
      }

      .cls-1, .cls-2, .cls-3, .cls-4, .cls-5, .cls-6, .cls-7, .cls-8, .cls-9, .cls-10, .cls-11, .cls-12, .cls-13, .cls-14, .cls-15 {
        stroke-width: 0px;
      }

      .cls-2 {
        fill: #332a24;
      }

      .cls-3 {
        fill: #bf4061;
      }

      .cls-4 {
        fill: #e58e73;
      }

      .cls-5 {
        fill: #454f63;
      }

      .cls-16 {
        isolation: isolate;
      }

      .cls-6 {
        fill: #b6c9f2;
      }

      .cls-7 {
        fill: #333;
      }

      .cls-8 {
        fill: #aac1f2;
        mix-blend-mode: multiply;
      }

      .cls-9 {
        fill: #f4ae7a;
      }

      .cls-10 {
        fill: #473a30;
      }

      .cls-11 {
        fill: #f76197;
      }

      .cls-12 {
        fill: #e5c69c;
      }

      .cls-13 {
        fill: #fcdfb1;
      }

      .cls-14 {
        fill: #bf5f3a;
      }

      .cls-15 {
        fill: #3d4d77;
      }
    </style>
    <linearGradient id="linear-gradient" x1="103.9" y1="-16780.36" x2="103.9" y2="-16849.04" gradientTransform="translate(0 -16646.48) scale(1 -1)" gradientUnits="userSpaceOnUse">
      <stop offset="0" stop-color="#253473"/>
      <stop offset="1" stop-color="#b5c9f7" stop-opacity="0"/>
    </linearGradient>
  </defs>
  <g class="cls-16">
    <g id="Layer_2" data-name="Layer 2">
      <g id="object">
        <g>
          <g>
            <circle class="cls-5" cx="105.15" cy="105.15" r="105.15"/>
            <circle class="cls-9" cx="105.08" cy="105.22" r="97.1"/>
          </g>
          <g>
            <g>
              <circle class="cls-12" cx="156.11" cy="88.21" r="5.45"/>
              <circle class="cls-12" cx="51.91" cy="88.21" r="5.45"/>
            </g>
            <rect class="cls-13" x="54.07" y="42.78" width="99.88" height="88.78" rx="43.24" ry="43.24"/>
            <g>
              <g>
                <circle class="cls-7" cx="79.57" cy="86.01" r="4.88"/>
                <circle class="cls-7" cx="128.79" cy="86.01" r="4.88"/>
              </g>
              <g>
                <ellipse class="cls-11" cx="70.31" cy="98.14" rx="8.92" ry="3.77"/>
                <ellipse class="cls-11" cx="137.7" cy="98.14" rx="8.92" ry="3.77"/>
              </g>
              <ellipse class="cls-3" cx="103.9" cy="107.41" rx="7.85" ry="9.86"/>
            </g>
            <g>
              <path class="cls-13" d="M124.04,135.77c36.76,17.91,13.96,47.02,13.96,47.02l-3.33-4.32s20.1-22.86-14.97-40.21l4.35-2.49Z"/>
              <path class="cls-13" d="M132.23,175.95c-.77-.75-2.26-.89-3.72-.27-1.75.75-2.75,2.33-2.24,3.52.17.39.48.68.88.88l-1.75,1.96c-1.09,1.23-1.55,3.67-.32,4.76,1.34,1.19,2.08.79,2.08.79l4.73,4.22c1.23,1.09,3.11.99,4.2-.24l3.73-4.18c2.36-2.65,2.13-6.71-.52-9.07l-1.09-.98c-1.69-1.51-3.95-1.95-5.98-1.39Z"/>
            </g>
            <g>
              <path class="cls-13" d="M84.59,135.69c-36.76,17.91-13.96,47.02-13.96,47.02l3.33-4.32s-20.1-22.86,14.97-40.21l-4.35-2.49Z"/>
              <path class="cls-13" d="M76.72,175.92c.84-.67,2.36-.67,3.75.1,1.68.93,2.53,2.61,1.9,3.75-.21.37-.55.63-.97.79l1.56,2.14c.98,1.34,1.19,3.83-.15,4.8-1.46,1.06-2.16.59-2.16.59l-5.16,3.76c-1.34.98-3.21.68-4.19-.66l-3.33-4.57c-2.11-2.89-1.47-6.94,1.42-9.05l1.19-.87c1.84-1.34,4.16-1.56,6.14-.8Z"/>
            </g>
            <g>
              <path class="cls-15" d="M105.08,202.32c6.49,0,12.83-.65,18.97-1.87v-65.12h-40.29v64.62c6.86,1.54,14,2.37,21.32,2.37Z"/>
              <path class="cls-1" d="M105.08,202.32c6.49,0,12.83-.65,18.97-1.87v-65.12h-40.29v64.62c6.86,1.54,14,2.37,21.32,2.37Z"/>
              <path class="cls-8" d="M93.27,201.61v-66.27h-9.52v64.62c3.12.7,6.29,1.26,9.52,1.65Z"/>
              <g>
                <circle class="cls-14" cx="103.9" cy="163.65" r="7.7"/>
                <g>
                  <path class="cls-4" d="M97.9,158.83c1.22,2.13,3.08,6.4,2.1,11.45.16.09.31.18.48.26,1.11-5.39-.95-9.95-2.22-12.12-.12.13-.24.27-.36.41Z"/>
                  <path class="cls-4" d="M106.93,156.57c.37,2.47,1.37,7.01,3.88,10.45.09-.18.17-.36.24-.55-2.18-3.13-3.15-7.2-3.55-9.62-.19-.1-.38-.19-.57-.28Z"/>
                  <path class="cls-4" d="M107.66,156.93c-3.51,2.1-7.77,2.63-10.33,2.73-.1.17-.2.34-.29.52,2.62-.08,7.33-.58,11.12-2.95-.16-.11-.33-.21-.5-.3Z"/>
                  <path class="cls-4" d="M98.91,169.5c.13.11.27.22.4.32,1.75-1.87,5.99-5.47,12.15-4.71.03-.17.06-.34.08-.51-6.4-.79-10.81,2.96-12.63,4.9Z"/>
                  <path class="cls-4" d="M107.15,170.62c.08-.04.16-.07.23-.11l-4.57-14.47c-.09.01-.17.02-.26.04l4.59,14.55Z"/>
                </g>
              </g>
              <path class="cls-6" d="M88.9,175.94c1.57-1.33,10.77-9.91,10.96-4.31-.09.96-.42,2.26-.01,3.14.08.19.15.14.28.2.32.07,1.06-.07,1.72-.32,4.18-1.66,8.31-6.34,12.08-1.06.27.35.8.17,1.21.08,1.29-.44,3.13-.85,3.49-2.31,0,0,.28-.11.28-.11.25.48.16,1-.01,1.46-.54,1.3-1.76,2.2-2.9,2.88-.66.4-1.62.74-2.51.57-1.23-.14-2.03-1.38-2.88-1.82-.45-.31-1.87.09-3.24.71-4.52,2.17-11.41,4.64-9.22-3.62.03-.13.01-.22.04-.2,0,.05.19.12.13.1-.06-.05-.46,0-.79.1-2.95.98-5.79,3-8.44,4.72,0,0-.19-.23-.19-.23h0Z"/>
            </g>
            <g>
              <rect class="cls-13" x="100.46" y="127.27" width="7.1" height="11.04" rx="3.46" ry="3.46"/>
              <path class="cls-13" d="M96.73,135.38v1.44c0,4.02,3.26,7.28,7.28,7.28s7.28-3.26,7.28-7.28v-1.44h-14.56Z"/>
            </g>
            <g>
              <path class="cls-10" d="M149.58,40.37l-4.15-4.15-4.15,4.15-4.15-4.15-4.15,4.15-4.15-4.15-4.15,4.15-4.15-4.15-4.15,4.15-4.15-4.15-4.15,4.15-4.15-4.15-4.15,4.15-4.15-4.15-4.15,4.15-4.15-4.15-4.15,4.15-4.15-4.15-4.15,4.15-4.15-4.15-4.15,4.15-4.15-4.15-4.15,4.15-4.15-4.15.22,46.54s9.74-3.78,9.74-23.6c0,0,30.22,6.82,79.97,0,0,0-1.02,19.63,9.74,23.6v-46.54l-4.15,4.15Z"/>
              <path class="cls-2" d="M84.96,38.54l-1.82,1.82-4.15-4.15-4.15,4.15-4.15-4.15-4.15,4.15-4.15-4.15-4.15,4.15-4.15-4.15.22,46.54s9.74-3.78,9.74-23.6c0,0,7.42,1.67,20.94,2.53v-23.15Z"/>
            </g>
          </g>
        </g>
      </g>
    </g>
  </g>
</svg>