<svg width="57" height="58" viewBox="0 0 57 58" fill="none" xmlns="http://www.w3.org/2000/svg">
<rect width="57" height="58" fill="#FED36A"/>
<path d="M39 23.5H33M23 23.5H19M39 34.5H35M25 34.5H19M27 27C27.4596 27 27.9148 26.9095 28.3394 26.7336C28.764 26.5577 29.1499 26.2999 29.4749 25.9749C29.7999 25.6499 30.0577 25.264 30.2336 24.8394C30.4095 24.4148 30.5 23.9596 30.5 23.5C30.5 23.0404 30.4095 22.5852 30.2336 22.1606C30.0577 21.736 29.7999 21.3501 29.4749 21.0251C29.1499 20.7001 28.764 20.4423 28.3394 20.2664C27.9148 20.0905 27.4596 20 27 20C26.0717 20 25.1815 20.3687 24.5251 21.0251C23.8687 21.6815 23.5 22.5717 23.5 23.5C23.5 24.4283 23.8687 25.3185 24.5251 25.9749C25.1815 26.6313 26.0717 27 27 27V27ZM31 38C31.9283 38 32.8185 37.6313 33.4749 36.9749C34.1313 36.3185 34.5 35.4283 34.5 34.5C34.5 33.5717 34.1313 32.6815 33.4749 32.0251C32.8185 31.3687 31.9283 31 31 31C30.0717 31 29.1815 31.3687 28.5251 32.0251C27.8687 32.6815 27.5 33.5717 27.5 34.5C27.5 35.4283 27.8687 36.3185 28.5251 36.9749C29.1815 37.6313 30.0717 38 31 38V38Z" stroke="#212832" stroke-width="1.5" stroke-miterlimit="10" stroke-linecap="round" stroke-linejoin="round"/>
</svg>
