<svg width="47" height="47" viewBox="0 0 47 47" fill="none" xmlns="http://www.w3.org/2000/svg">
<rect width="47" height="47" fill="#FED36A"/>
<path d="M20 13V16M28 13V16M15.5 20.09H32.5M31.07 31.11L28.95 29M31.05 29.02L28.93 31.14M30 34C31.0609 34 32.0783 33.5786 32.8284 32.8284C33.5786 32.0783 34 31.0609 34 30C34 28.9391 33.5786 27.9217 32.8284 27.1716C32.0783 26.4214 31.0609 26 30 26C28.9391 26 27.9217 26.4214 27.1716 27.1716C26.4214 27.9217 26 28.9391 26 30C26 31.0609 26.4214 32.0783 27.1716 32.8284C27.9217 33.5786 28.9391 34 30 34Z" stroke="black" stroke-width="1.5" stroke-miterlimit="10" stroke-linecap="round" stroke-linejoin="round"/>
<path d="M15 24.01V19.5C15 16.5 16.5 14.5 20 14.5H28C31.5 14.5 33 16.5 33 19.5V27.36C32.27 26.53 31.2 26 30 26C27.79 26 26 27.79 26 30C26 30.75 26.21 31.46 26.58 32.06C26.79 32.42 27.06 32.74 27.37 33H20C16.5 33 15 31 15 28" stroke="black" stroke-width="1.5" stroke-miterlimit="10" stroke-linecap="round" stroke-linejoin="round"/>
<path d="M23.995 24.7H24.004M20.295 24.7H20.305M20.295 27.7H20.305" stroke="black" stroke-width="2" stroke-linecap="round" stroke-linejoin="round"/>
</svg>
