<svg width="47" height="47" viewBox="0 0 47 47" fill="none" xmlns="http://www.w3.org/2000/svg">
<rect width="47" height="47" fill="#FED36A"/>
<path d="M24.679 14.96C25.159 15.67 25.439 16.52 25.439 17.44C25.429 19.84 23.539 21.79 21.159 21.87C21.059 21.86 20.939 21.86 20.829 21.87C19.6812 21.831 18.5936 21.3468 17.7966 20.52C16.9996 19.6931 16.5557 18.5885 16.559 17.44C16.559 14.99 18.539 13 20.999 13M28.411 15C30.351 15 31.911 16.57 31.911 18.5C31.911 20.39 30.411 21.93 28.541 22C28.4546 21.99 28.3674 21.99 28.281 22M30.34 31C31.06 30.85 31.74 30.56 32.3 30.13C33.86 28.96 33.86 27.03 32.3 25.86C31.75 25.44 31.08 25.16 30.37 25M16.159 25.56C13.739 27.18 13.739 29.82 16.159 31.43C18.909 33.27 23.419 33.27 26.169 31.43C28.589 29.81 28.589 27.17 26.169 25.56C23.429 23.73 18.919 23.73 16.159 25.56V25.56Z" stroke="black" stroke-width="1.5" stroke-linecap="round" stroke-linejoin="round"/>
</svg>
